<svg width="30" height="30" viewBox="0 0 30 30" fill="none" xmlns="http://www.w3.org/2000/svg">
<rect width="30" height="30" rx="15" fill="#F0F0F0"/>
<path d="M13.5 17.2498H10.5C9.70435 17.2498 8.94129 17.5658 8.37868 18.1284C7.81607 18.6911 7.5 19.4541 7.5 20.2498V21.7498M16.7288 18.3973L17.421 18.1108M17.421 16.3888L16.7288 16.1015M18.639 15.1708L18.3517 14.4785M18.639 19.3288L18.3517 20.0218M20.361 15.1708L20.6483 14.4785M20.6475 20.0218L20.361 19.3288M21.579 16.3888L22.272 16.1015M21.579 18.1108L22.272 18.398" stroke="black" stroke-width="2" stroke-linecap="round" stroke-linejoin="round"/>
<path d="M19.5 19.5C20.7426 19.5 21.75 18.4926 21.75 17.25C21.75 16.0074 20.7426 15 19.5 15C18.2574 15 17.25 16.0074 17.25 17.25C17.25 18.4926 18.2574 19.5 19.5 19.5Z" stroke="black" stroke-width="2" stroke-linecap="round" stroke-linejoin="round"/>
<path d="M12.75 14.25C14.4069 14.25 15.75 12.9069 15.75 11.25C15.75 9.59315 14.4069 8.25 12.75 8.25C11.0931 8.25 9.75 9.59315 9.75 11.25C9.75 12.9069 11.0931 14.25 12.75 14.25Z" stroke="black" stroke-width="2" stroke-linecap="round" stroke-linejoin="round"/>
</svg>
