<svg width="40" height="40" viewBox="0 0 40 40" fill="none" xmlns="http://www.w3.org/2000/svg">
<path d="M20.0007 33.334C23.5369 33.334 26.9283 31.9292 29.4287 29.4287C31.9292 26.9283 33.334 23.5369 33.334 20.0007C33.334 16.4644 31.9292 13.073 29.4287 10.5726C26.9283 8.07208 23.5369 6.66732 20.0007 6.66732C16.4644 6.66732 13.073 8.07208 10.5726 10.5726C8.07208 13.073 6.66732 16.4644 6.66732 20.0007C6.66732 23.5369 8.07208 26.9283 10.5726 29.4287C13.073 31.9292 16.4644 33.334 20.0007 33.334ZM20.0007 3.33398C22.1893 3.33398 24.3566 3.76508 26.3787 4.60266C28.4008 5.44024 30.2381 6.66789 31.7858 8.21554C33.3334 9.76318 34.5611 11.6005 35.3986 13.6226C36.2362 15.6447 36.6673 17.812 36.6673 20.0007C36.6673 24.4209 34.9114 28.6602 31.7858 31.7858C28.6602 34.9114 24.4209 36.6673 20.0007 36.6673C10.784 36.6673 3.33398 29.1673 3.33398 20.0007C3.33398 15.5804 5.08993 11.3411 8.21554 8.21554C11.3411 5.08993 15.5804 3.33398 20.0007 3.33398ZM20.834 11.6673V20.4173L28.334 24.8673L27.084 26.9173L18.334 21.6673V11.6673H20.834Z" fill="black"/>
</svg>
