<svg width="30" height="30" viewBox="0 0 30 30" fill="none" xmlns="http://www.w3.org/2000/svg">
<rect width="30" height="30" rx="15" fill="#F0F0F0"/>
<path d="M20.8498 22.2002H9.1498C8.4028 22.2002 7.7998 21.5972 7.7998 20.8502V10.0502C7.7998 9.3032 8.4028 8.7002 9.1498 8.7002H20.8498C21.5968 8.7002 22.1998 9.3032 22.1998 10.0502V20.8502C22.1998 21.5972 21.5968 22.2002 20.8498 22.2002ZM9.1498 9.6002C8.8978 9.6002 8.6998 9.7982 8.6998 10.0502V20.8502C8.6998 21.1022 8.8978 21.3002 9.1498 21.3002H20.8498C21.1018 21.3002 21.2998 21.1022 21.2998 20.8502V10.0502C21.2998 9.7982 21.1018 9.6002 20.8498 9.6002H9.1498Z" fill="black"/>
<path d="M11.8498 11.4008C11.5978 11.4008 11.3998 11.2028 11.3998 10.9508V8.25078C11.3998 7.99878 11.5978 7.80078 11.8498 7.80078C12.1018 7.80078 12.2998 7.99878 12.2998 8.25078V10.9508C12.2998 11.2028 12.1018 11.4008 11.8498 11.4008ZM18.1498 11.4008C17.8978 11.4008 17.6998 11.2028 17.6998 10.9508V8.25078C17.6998 7.99878 17.8978 7.80078 18.1498 7.80078C18.4018 7.80078 18.5998 7.99878 18.5998 8.25078V10.9508C18.5998 11.2028 18.4018 11.4008 18.1498 11.4008ZM21.7498 13.2008H8.2498C7.9978 13.2008 7.7998 13.0028 7.7998 12.7508C7.7998 12.4988 7.9978 12.3008 8.2498 12.3008H21.7498C22.0018 12.3008 22.1998 12.4988 22.1998 12.7508C22.1998 13.0028 22.0018 13.2008 21.7498 13.2008Z" fill="black"/>
</svg>
