<svg width="24" height="24" viewBox="0 0 24 24" fill="none" xmlns="http://www.w3.org/2000/svg">
<path d="M4.616 18C4.15533 18 3.771 17.846 3.463 17.538C3.155 17.23 3.00067 16.8453 3 16.384V7.616C3 7.15533 3.15433 6.771 3.463 6.463C3.77167 6.155 4.15567 6.00067 4.615 6H19.385C19.845 6 20.229 6.15433 20.537 6.463C20.845 6.77167 20.9993 7.156 21 7.616V16.385C21 16.845 20.8457 17.2293 20.537 17.538C20.2283 17.8467 19.8443 18.0007 19.385 18H4.616ZM4.616 17H19.385C19.5383 17 19.6793 16.936 19.808 16.808C19.9367 16.68 20.0007 16.5387 20 16.384V7.616C20 7.462 19.936 7.32067 19.808 7.192C19.68 7.06333 19.539 6.99933 19.385 7H4.615C4.46167 7 4.32067 7.064 4.192 7.192C4.06333 7.32 3.99933 7.46133 4 7.616V16.385C4 16.5383 4.064 16.6793 4.192 16.808C4.32 16.9367 4.461 17.0007 4.615 17M9 15.77H15C15.2067 15.77 15.3867 15.6963 15.54 15.549C15.6933 15.4023 15.77 15.2193 15.77 15C15.77 14.7933 15.6933 14.6133 15.54 14.46C15.3867 14.3067 15.2067 14.23 15 14.23H9C8.79333 14.23 8.61333 14.3037 8.46 14.451C8.30667 14.5977 8.23 14.7807 8.23 15C8.23 15.2067 8.30667 15.3867 8.46 15.54C8.61333 15.6933 8.79333 15.77 9 15.77ZM6 9.77C6.20667 9.77 6.38667 9.69333 6.54 9.54C6.69333 9.38667 6.77 9.20667 6.77 9C6.77 8.79333 6.69333 8.61333 6.54 8.46C6.38667 8.30667 6.20667 8.23 6 8.23C5.79333 8.23 5.61333 8.30667 5.46 8.46C5.30667 8.61333 5.23 8.79333 5.23 9C5.23 9.20667 5.30667 9.38667 5.46 9.54C5.61333 9.69333 5.79333 9.77 6 9.77ZM9 9.77C9.20667 9.77 9.38667 9.69333 9.54 9.54C9.69333 9.38667 9.77 9.20667 9.77 9C9.77 8.79333 9.69333 8.61333 9.54 8.46C9.38667 8.30667 9.20667 8.23 9 8.23C8.79333 8.23 8.61333 8.30667 8.46 8.46C8.30667 8.61333 8.23 8.79333 8.23 9C8.23 9.20667 8.30667 9.38667 8.46 9.54C8.61333 9.69333 8.79333 9.77 9 9.77ZM12 9.77C12.2067 9.77 12.3867 9.69333 12.54 9.54C12.6933 9.38667 12.77 9.20667 12.77 9C12.77 8.79333 12.6933 8.61333 12.54 8.46C12.3867 8.30667 12.2067 8.23 12 8.23C11.7933 8.23 11.6133 8.30667 11.46 8.46C11.3067 8.61333 11.23 8.79333 11.23 9C11.23 9.20667 11.3067 9.38667 11.46 9.54C11.6133 9.69333 11.7933 9.77 12 9.77ZM15 9.77C15.2067 9.77 15.3867 9.69333 15.54 9.54C15.6933 9.38667 15.77 9.20667 15.77 9C15.77 8.79333 15.6933 8.61333 15.54 8.46C15.3867 8.30667 15.2067 8.23 15 8.23C14.7933 8.23 14.6133 8.30667 14.46 8.46C14.3067 8.61333 14.23 8.79333 14.23 9C14.23 9.20667 14.3067 9.38667 14.46 9.54C14.6133 9.69333 14.7933 9.77 15 9.77ZM18 9.77C18.2067 9.77 18.3867 9.69333 18.54 9.54C18.6933 9.38667 18.77 9.20667 18.77 9C18.77 8.79333 18.6933 8.61333 18.54 8.46C18.3867 8.30667 18.2067 8.23 18 8.23C17.7933 8.23 17.6133 8.30667 17.46 8.46C17.3067 8.61333 17.23 8.79333 17.23 9C17.23 9.20667 17.3067 9.38667 17.46 9.54C17.6133 9.69333 17.7933 9.77 18 9.77ZM6 12.77C6.20667 12.77 6.38667 12.6933 6.54 12.54C6.69333 12.3867 6.77 12.2067 6.77 12C6.77 11.7933 6.69333 11.6133 6.54 11.46C6.38667 11.3067 6.20667 11.23 6 11.23C5.79333 11.23 5.61333 11.3067 5.46 11.46C5.30667 11.6133 5.23 11.7933 5.23 12C5.23 12.2067 5.30667 12.3867 5.46 12.54C5.61333 12.6933 5.79333 12.77 6 12.77ZM9 12.77C9.20667 12.77 9.38667 12.6933 9.54 12.54C9.69333 12.3867 9.77 12.2067 9.77 12C9.77 11.7933 9.69333 11.6133 9.54 11.46C9.38667 11.3067 9.20667 11.23 9 11.23C8.79333 11.23 8.61333 11.3067 8.46 11.46C8.30667 11.6133 8.23 11.7933 8.23 12C8.23 12.2067 8.30667 12.3867 8.46 12.54C8.61333 12.6933 8.79333 12.77 9 12.77ZM12 12.77C12.2067 12.77 12.3867 12.6933 12.54 12.54C12.6933 12.3867 12.77 12.2067 12.77 12C12.77 11.7933 12.6933 11.6133 12.54 11.46C12.3867 11.3067 12.2067 11.23 12 11.23C11.7933 11.23 11.6133 11.3067 11.46 11.46C11.3067 11.6133 11.23 11.7933 11.23 12C11.23 12.2067 11.3067 12.3867 11.46 12.54C11.6133 12.6933 11.7933 12.77 12 12.77ZM15 12.77C15.2067 12.77 15.3867 12.6933 15.54 12.54C15.6933 12.3867 15.77 12.2067 15.77 12C15.77 11.7933 15.6933 11.6133 15.54 11.46C15.3867 11.3067 15.2067 11.23 15 11.23C14.7933 11.23 14.6133 11.3067 14.46 11.46C14.3067 11.6133 14.23 11.7933 14.23 12C14.23 12.2067 14.3067 12.3867 14.46 12.54C14.6133 12.6933 14.7933 12.77 15 12.77ZM18 12.77C18.2067 12.77 18.3867 12.6933 18.54 12.54C18.6933 12.3867 18.77 12.2067 18.77 12C18.77 11.7933 18.6933 11.6133 18.54 11.46C18.3867 11.3067 18.2067 11.23 18 11.23C17.7933 11.23 17.6133 11.3067 17.46 11.46C17.3067 11.6133 17.23 11.7933 17.23 12C17.23 12.2067 17.3067 12.3867 17.46 12.54C17.6133 12.6933 17.7933 12.77 18 12.77Z" fill="black"/>
</svg>
