<svg width="40" height="40" viewBox="0 0 40 40" fill="none" xmlns="http://www.w3.org/2000/svg">
<path d="M3.33398 33.3327V6.66602H36.6673V33.3327H3.33398ZM13.334 28.3327H16.6673V26.666H18.334C18.8062 26.666 19.2023 26.506 19.5223 26.186C19.8423 25.866 20.0018 25.4705 20.0007 24.9993V19.9993C20.0007 19.5271 19.8407 19.1316 19.5207 18.8127C19.2007 18.4938 18.8051 18.3338 18.334 18.3327H13.334V16.666H20.0007V13.3327H16.6673V11.666H13.334V13.3327H11.6673C11.1951 13.3327 10.7995 13.4927 10.4807 13.8127C10.1618 14.1327 10.0018 14.5282 10.0007 14.9993V19.9993C10.0007 20.4716 10.1607 20.8677 10.4807 21.1877C10.8007 21.5077 11.1962 21.6671 11.6673 21.666H16.6673V23.3327H10.0007V26.666H13.334V28.3327ZM26.6673 27.0827L30.0007 23.7493H23.334L26.6673 27.0827ZM23.334 16.666H30.0007L26.6673 13.3327L23.334 16.666Z" fill="black"/>
</svg>
