<svg width="20" height="20" viewBox="0 0 20 20" fill="none" xmlns="http://www.w3.org/2000/svg">
<path d="M9.9993 14.3952L6.54096 16.4785C6.38819 16.5757 6.22846 16.6174 6.0618 16.6035C5.89513 16.5896 5.7493 16.5341 5.6243 16.4368C5.4993 16.3396 5.40208 16.2182 5.33263 16.0727C5.26319 15.9271 5.2493 15.7638 5.29096 15.5827L6.20763 11.6452L3.14513 8.99935C3.00624 8.87435 2.91958 8.73185 2.88513 8.57185C2.85069 8.41185 2.86096 8.25574 2.91596 8.10352C2.97096 7.95129 3.0543 7.82629 3.16596 7.72852C3.27763 7.63074 3.43041 7.56824 3.6243 7.54102L7.66596 7.18685L9.22846 3.47852C9.29791 3.31185 9.40569 3.18685 9.5518 3.10352C9.69791 3.02018 9.84708 2.97852 9.9993 2.97852C10.1515 2.97852 10.3007 3.02018 10.4468 3.10352C10.5929 3.18685 10.7007 3.31185 10.7701 3.47852L12.3326 7.18685L16.3743 7.54102C16.5687 7.56879 16.7215 7.63129 16.8326 7.72852C16.9437 7.82574 17.0271 7.95074 17.0826 8.10352C17.1382 8.25629 17.1487 8.41268 17.1143 8.57268C17.0799 8.73268 16.9929 8.8749 16.8535 8.99935L13.791 11.6452L14.7076 15.5827C14.7493 15.7632 14.7354 15.9266 14.666 16.0727C14.5965 16.2188 14.4993 16.3402 14.3743 16.4368C14.2493 16.5335 14.1035 16.5891 13.9368 16.6035C13.7701 16.618 13.6104 16.5763 13.4576 16.4785L9.9993 14.3952Z" fill="#EAA423"/>
</svg>
