<svg width="30" height="30" viewBox="0 0 30 30" fill="none" xmlns="http://www.w3.org/2000/svg">
<rect width="30" height="30" rx="15" fill="#F0F0F0"/>
<path d="M12.5402 19.4671L15.2997 17.7941L18.0592 19.4892L17.3365 16.3192L19.7675 14.2058L16.5699 13.9197L15.2997 10.9258L14.0294 13.8976L10.8319 14.1838L13.2629 16.3192L12.5402 19.4671ZM15.2997 19.8634L11.6641 22.0648C11.5035 22.1675 11.3356 22.2115 11.1604 22.1969C10.9852 22.1822 10.8319 22.1235 10.7005 22.0207C10.5691 21.918 10.4669 21.7897 10.3939 21.6359C10.3209 21.4821 10.3063 21.3096 10.3501 21.1182L11.3137 16.9576L8.09429 14.1618C7.94828 14.0297 7.85717 13.8791 7.82096 13.7101C7.78476 13.541 7.79556 13.3761 7.85338 13.2152C7.9112 13.0544 7.9988 12.9223 8.11619 12.819C8.23358 12.7156 8.39418 12.6496 8.59801 12.6208L12.8468 12.2466L14.4893 8.32814C14.5623 8.15203 14.6756 8.01994 14.8292 7.93189C14.9828 7.84383 15.1397 7.7998 15.2997 7.7998C15.4597 7.7998 15.6165 7.84383 15.7701 7.93189C15.9237 8.01994 16.037 8.15203 16.11 8.32814L17.7526 12.2466L22.0013 12.6208C22.2058 12.6502 22.3664 12.7162 22.4832 12.819C22.6 12.9217 22.6876 13.0538 22.746 13.2152C22.8044 13.3766 22.8155 13.5419 22.7793 13.711C22.7431 13.88 22.6517 14.0303 22.5051 14.1618L19.2856 16.9576L20.2493 21.1182C20.2931 21.309 20.2785 21.4816 20.2055 21.6359C20.1325 21.7903 20.0303 21.9186 19.8989 22.0207C19.7675 22.1229 19.6141 22.1816 19.4389 22.1969C19.2637 22.2121 19.0958 22.1681 18.9352 22.0648L15.2997 19.8634Z" fill="black"/>
</svg>
