<svg width="30" height="30" viewBox="0 0 30 30" fill="none" xmlns="http://www.w3.org/2000/svg">
<rect width="30" height="30" rx="15" fill="#F0F0F0"/>
<path d="M10.2 10.4231C10.2 9.50496 10.2 9.04588 10.3744 8.69501C10.5277 8.38652 10.7725 8.13571 11.0736 7.97852C11.416 7.7998 11.864 7.7998 12.76 7.7998H17.24C18.136 7.7998 18.584 7.7998 18.9264 7.97852C19.2274 8.13571 19.4722 8.38652 19.6256 8.69501C19.8 9.04588 19.8 9.50496 19.8 10.4231V21.3304C19.8 21.7288 19.8 21.928 19.7192 22.0371C19.6842 22.0845 19.6397 22.1236 19.5886 22.1516C19.5375 22.1796 19.481 22.1959 19.4232 22.1994C19.2896 22.2076 19.128 22.0969 18.8048 21.8764L15 19.2768L11.1952 21.8756C10.872 22.0969 10.7104 22.2076 10.576 22.1994C10.5182 22.1958 10.4619 22.1794 10.411 22.1514C10.36 22.1234 10.3156 22.0844 10.2808 22.0371C10.2 21.928 10.2 21.7288 10.2 21.3304V10.4231Z" stroke="black" stroke-width="1.5" stroke-linecap="round" stroke-linejoin="round"/>
</svg>
