<svg width="40" height="40" viewBox="0 0 40 40" fill="none" xmlns="http://www.w3.org/2000/svg">
<path d="M20 34.9993L0 14.9994C2.63889 12.3049 5.68778 10.2421 9.14667 8.81102C12.6056 7.37991 16.2233 6.66491 20 6.66602C23.7767 6.66713 27.395 7.38268 30.855 8.81268C34.315 10.2427 37.3633 12.3049 40 14.9994L35.875 19.1244C35.2361 18.8188 34.5622 18.5894 33.8533 18.436C33.1444 18.2827 32.4294 18.2066 31.7083 18.2077C28.9028 18.2077 26.5139 19.1938 24.5417 21.166C22.5694 23.1382 21.5833 25.5271 21.5833 28.3327C21.5833 29.0549 21.66 29.7705 21.8133 30.4794C21.9667 31.1882 22.1956 31.8616 22.5 32.4994L20 34.9993ZM30 34.9993V29.9994H25V26.666H30V21.666H33.3333V26.666H38.3333V29.9994H33.3333V34.9993H30Z" fill="black"/>
</svg>
